<mxfile host="app.diagrams.net" modified="2024-06-25T19:15:10.021Z" agent="Mozilla/5.0 (Macintosh; Intel Mac OS X 10_15_7) AppleWebKit/605.1.15 (KHTML, like Gecko) Version/17.4.1 Safari/605.1.15" version="24.6.3" etag="IIxT7k6BY7hMl0qKIrtS" type="github">
  <diagram name="Page-1" id="9P2p8n6tO_JuSPTyb3Lj">
    <mxGraphModel>
      <root>
        <mxCell id="0" />
        <mxCell id="1" parent="0" />
      </root>
    </mxGraphModel>
  </diagram>
</mxfile>
